# xmcd CD database file
#
# Track frame offsets:
#	150
#	57625
#	81685
#	110016
#	138086
#	170258
#	198267
#	234222
#	249117
#	277151
#
# Disc length: 4090 seconds
#
# Revision: 0
# Processed by: cddbd v1.5.2PL0 Copyright (c) Steve Scherf et al.
# Submitted via: CDex 1.51
#
DISCID=8a0ff80a
DTITLE=The Luminous World Orchestra - Deva
DYEAR=2006
DGENRE=New Age
TTITLE0=Cantus Firmus
TTITLE1=The Thaw
TTITLE2=Mantra
TTITLE3=Child King
TTITLE4=Maya
TTITLE5=On the Hill
TTITLE6=Passage
TTITLE7=Gathering
TTITLE8=Sweeet Face
TTITLE9=Orange Lullaby
EXTD=YEAR: 2006
EXTT0=
EXTT1=
EXTT2=
EXTT3=
EXTT4=
EXTT5=
EXTT6=
EXTT7=
EXTT8=
EXTT9=
PLAYORDER=
